<mxfile host="65bd71144e">
    <diagram id="deSxDQOu9u_3aHM_2UQ1" name="ページ1">
        <mxGraphModel dx="1129" dy="654" grid="1" gridSize="10" guides="1" tooltips="1" connect="1" arrows="1" fold="1" page="1" pageScale="1" pageWidth="827" pageHeight="1169" math="0" shadow="0">
            <root>
                <mxCell id="0"/>
                <mxCell id="1" parent="0"/>
                <mxCell id="3" value="&lt;font style=&quot;font-size: 26px;&quot;&gt;診察予約フォーム&lt;/font&gt;" style="rounded=0;whiteSpace=wrap;html=1;verticalAlign=top;align=left;" vertex="1" parent="1">
                    <mxGeometry x="90" y="50" width="540" height="1150" as="geometry"/>
                </mxCell>
                <mxCell id="4" value="○○病院" style="rounded=0;whiteSpace=wrap;html=1;fontSize=25;align=left;" vertex="1" parent="1">
                    <mxGeometry x="110" y="110" width="500" height="50" as="geometry"/>
                </mxCell>
                <mxCell id="5" value="" style="shape=table;startSize=0;container=1;collapsible=0;childLayout=tableLayout;fontSize=16;" vertex="1" parent="1">
                    <mxGeometry x="110" y="180" width="500" height="160" as="geometry"/>
                </mxCell>
                <mxCell id="6" value="" style="shape=tableRow;horizontal=0;startSize=0;swimlaneHead=0;swimlaneBody=0;strokeColor=inherit;top=0;left=0;bottom=0;right=0;collapsible=0;dropTarget=0;fillColor=none;points=[[0,0.5],[1,0.5]];portConstraint=eastwest;fontSize=16;" vertex="1" parent="5">
                    <mxGeometry width="500" height="40" as="geometry"/>
                </mxCell>
                <mxCell id="7" value="住所" style="shape=partialRectangle;html=1;whiteSpace=wrap;connectable=0;strokeColor=inherit;overflow=hidden;fillColor=none;top=0;left=0;bottom=0;right=0;pointerEvents=1;fontSize=16;align=center;" vertex="1" parent="6">
                    <mxGeometry width="140" height="40" as="geometry">
                        <mxRectangle width="140" height="40" as="alternateBounds"/>
                    </mxGeometry>
                </mxCell>
                <mxCell id="8" value="" style="shape=partialRectangle;html=1;whiteSpace=wrap;connectable=0;strokeColor=inherit;overflow=hidden;fillColor=none;top=0;left=0;bottom=0;right=0;pointerEvents=1;fontSize=16;" vertex="1" parent="6">
                    <mxGeometry x="140" width="360" height="40" as="geometry">
                        <mxRectangle width="360" height="40" as="alternateBounds"/>
                    </mxGeometry>
                </mxCell>
                <mxCell id="10" value="" style="shape=tableRow;horizontal=0;startSize=0;swimlaneHead=0;swimlaneBody=0;strokeColor=inherit;top=0;left=0;bottom=0;right=0;collapsible=0;dropTarget=0;fillColor=none;points=[[0,0.5],[1,0.5]];portConstraint=eastwest;fontSize=16;" vertex="1" parent="5">
                    <mxGeometry y="40" width="500" height="40" as="geometry"/>
                </mxCell>
                <mxCell id="11" value="電話番号" style="shape=partialRectangle;html=1;whiteSpace=wrap;connectable=0;strokeColor=inherit;overflow=hidden;fillColor=none;top=0;left=0;bottom=0;right=0;pointerEvents=1;fontSize=16;" vertex="1" parent="10">
                    <mxGeometry width="140" height="40" as="geometry">
                        <mxRectangle width="140" height="40" as="alternateBounds"/>
                    </mxGeometry>
                </mxCell>
                <mxCell id="12" value="" style="shape=partialRectangle;html=1;whiteSpace=wrap;connectable=0;strokeColor=inherit;overflow=hidden;fillColor=none;top=0;left=0;bottom=0;right=0;pointerEvents=1;fontSize=16;" vertex="1" parent="10">
                    <mxGeometry x="140" width="360" height="40" as="geometry">
                        <mxRectangle width="360" height="40" as="alternateBounds"/>
                    </mxGeometry>
                </mxCell>
                <mxCell id="27" style="shape=tableRow;horizontal=0;startSize=0;swimlaneHead=0;swimlaneBody=0;strokeColor=inherit;top=0;left=0;bottom=0;right=0;collapsible=0;dropTarget=0;fillColor=none;points=[[0,0.5],[1,0.5]];portConstraint=eastwest;fontSize=16;" vertex="1" parent="5">
                    <mxGeometry y="80" width="500" height="40" as="geometry"/>
                </mxCell>
                <mxCell id="28" value="診療科目" style="shape=partialRectangle;html=1;whiteSpace=wrap;connectable=0;strokeColor=inherit;overflow=hidden;fillColor=none;top=0;left=0;bottom=0;right=0;pointerEvents=1;fontSize=16;" vertex="1" parent="27">
                    <mxGeometry width="140" height="40" as="geometry">
                        <mxRectangle width="140" height="40" as="alternateBounds"/>
                    </mxGeometry>
                </mxCell>
                <mxCell id="29" value="&lt;span style=&quot;color: rgb(71, 71, 71); font-family: メイリオ, Meiryo, &amp;quot;ヒラギノ角ゴ Pro W3&amp;quot;, &amp;quot;Hiragino Kaku Gothic Pro&amp;quot;, Osaka, &amp;quot;ＭＳ Ｐゴシック&amp;quot;, &amp;quot;MS PGothic&amp;quot;, sans-serif; font-size: 14px; text-align: left; background-color: rgb(255, 255, 255);&quot;&gt;小児科、アレルギー科、内科、外科&lt;/span&gt;" style="shape=partialRectangle;html=1;whiteSpace=wrap;connectable=0;strokeColor=inherit;overflow=hidden;fillColor=none;top=0;left=0;bottom=0;right=0;pointerEvents=1;fontSize=16;" vertex="1" parent="27">
                    <mxGeometry x="140" width="360" height="40" as="geometry">
                        <mxRectangle width="360" height="40" as="alternateBounds"/>
                    </mxGeometry>
                </mxCell>
                <mxCell id="24" style="shape=tableRow;horizontal=0;startSize=0;swimlaneHead=0;swimlaneBody=0;strokeColor=inherit;top=0;left=0;bottom=0;right=0;collapsible=0;dropTarget=0;fillColor=none;points=[[0,0.5],[1,0.5]];portConstraint=eastwest;fontSize=16;" vertex="1" parent="5">
                    <mxGeometry y="120" width="500" height="40" as="geometry"/>
                </mxCell>
                <mxCell id="25" value="お知らせ" style="shape=partialRectangle;html=1;whiteSpace=wrap;connectable=0;strokeColor=inherit;overflow=hidden;fillColor=none;top=0;left=0;bottom=0;right=0;pointerEvents=1;fontSize=16;" vertex="1" parent="24">
                    <mxGeometry width="140" height="40" as="geometry">
                        <mxRectangle width="140" height="40" as="alternateBounds"/>
                    </mxGeometry>
                </mxCell>
                <mxCell id="26" value="&lt;span style=&quot;color: rgb(71, 71, 71); font-family: メイリオ, Meiryo, &amp;quot;ヒラギノ角ゴ Pro W3&amp;quot;, &amp;quot;Hiragino Kaku Gothic Pro&amp;quot;, Osaka, &amp;quot;ＭＳ Ｐゴシック&amp;quot;, &amp;quot;MS PGothic&amp;quot;, sans-serif; font-size: 14px; font-style: normal; font-variant-ligatures: normal; font-variant-caps: normal; font-weight: 400; letter-spacing: normal; orphans: 2; text-align: left; text-indent: 0px; text-transform: none; widows: 2; word-spacing: 0px; -webkit-text-stroke-width: 0px; white-space: normal; background-color: rgb(255, 255, 255); text-decoration-thickness: initial; text-decoration-style: initial; text-decoration-color: initial; float: none; display: inline !important;&quot;&gt;ご来院時には、保険証、医療証各種をお持ちください。&lt;/span&gt;" style="shape=partialRectangle;html=1;whiteSpace=wrap;connectable=0;strokeColor=inherit;overflow=hidden;fillColor=none;top=0;left=0;bottom=0;right=0;pointerEvents=1;fontSize=16;verticalAlign=middle;" vertex="1" parent="24">
                    <mxGeometry x="140" width="360" height="40" as="geometry">
                        <mxRectangle width="360" height="40" as="alternateBounds"/>
                    </mxGeometry>
                </mxCell>
                <mxCell id="30" value="" style="shape=table;startSize=0;container=1;collapsible=0;childLayout=tableLayout;fontSize=16;" vertex="1" parent="1">
                    <mxGeometry x="110" y="430" width="500.0000000000002" height="120" as="geometry"/>
                </mxCell>
                <mxCell id="31" value="" style="shape=tableRow;horizontal=0;startSize=0;swimlaneHead=0;swimlaneBody=0;strokeColor=inherit;top=0;left=0;bottom=0;right=0;collapsible=0;dropTarget=0;fillColor=none;points=[[0,0.5],[1,0.5]];portConstraint=eastwest;fontSize=16;" vertex="1" parent="30">
                    <mxGeometry width="500.0000000000002" height="40" as="geometry"/>
                </mxCell>
                <mxCell id="32" value="診療時間" style="shape=partialRectangle;html=1;whiteSpace=wrap;connectable=0;strokeColor=inherit;overflow=hidden;fillColor=none;top=0;left=0;bottom=0;right=0;pointerEvents=1;fontSize=16;" vertex="1" parent="31">
                    <mxGeometry width="150" height="40" as="geometry">
                        <mxRectangle width="150" height="40" as="alternateBounds"/>
                    </mxGeometry>
                </mxCell>
                <mxCell id="59" value="月" style="shape=partialRectangle;html=1;whiteSpace=wrap;connectable=0;strokeColor=inherit;overflow=hidden;fillColor=none;top=0;left=0;bottom=0;right=0;pointerEvents=1;fontSize=16;" vertex="1" parent="31">
                    <mxGeometry x="150" width="50" height="40" as="geometry">
                        <mxRectangle width="50" height="40" as="alternateBounds"/>
                    </mxGeometry>
                </mxCell>
                <mxCell id="77" value="火" style="shape=partialRectangle;html=1;whiteSpace=wrap;connectable=0;strokeColor=inherit;overflow=hidden;fillColor=none;top=0;left=0;bottom=0;right=0;pointerEvents=1;fontSize=16;" vertex="1" parent="31">
                    <mxGeometry x="200" width="50" height="40" as="geometry">
                        <mxRectangle width="50" height="40" as="alternateBounds"/>
                    </mxGeometry>
                </mxCell>
                <mxCell id="74" value="水" style="shape=partialRectangle;html=1;whiteSpace=wrap;connectable=0;strokeColor=inherit;overflow=hidden;fillColor=none;top=0;left=0;bottom=0;right=0;pointerEvents=1;fontSize=16;" vertex="1" parent="31">
                    <mxGeometry x="250" width="50" height="40" as="geometry">
                        <mxRectangle width="50" height="40" as="alternateBounds"/>
                    </mxGeometry>
                </mxCell>
                <mxCell id="71" value="木" style="shape=partialRectangle;html=1;whiteSpace=wrap;connectable=0;strokeColor=inherit;overflow=hidden;fillColor=none;top=0;left=0;bottom=0;right=0;pointerEvents=1;fontSize=16;" vertex="1" parent="31">
                    <mxGeometry x="300" width="50" height="40" as="geometry">
                        <mxRectangle width="50" height="40" as="alternateBounds"/>
                    </mxGeometry>
                </mxCell>
                <mxCell id="68" value="金" style="shape=partialRectangle;html=1;whiteSpace=wrap;connectable=0;strokeColor=inherit;overflow=hidden;fillColor=none;top=0;left=0;bottom=0;right=0;pointerEvents=1;fontSize=16;" vertex="1" parent="31">
                    <mxGeometry x="350" width="50" height="40" as="geometry">
                        <mxRectangle width="50" height="40" as="alternateBounds"/>
                    </mxGeometry>
                </mxCell>
                <mxCell id="65" value="土" style="shape=partialRectangle;html=1;whiteSpace=wrap;connectable=0;strokeColor=inherit;overflow=hidden;fillColor=none;top=0;left=0;bottom=0;right=0;pointerEvents=1;fontSize=16;" vertex="1" parent="31">
                    <mxGeometry x="400" width="50" height="40" as="geometry">
                        <mxRectangle width="50" height="40" as="alternateBounds"/>
                    </mxGeometry>
                </mxCell>
                <mxCell id="62" value="日" style="shape=partialRectangle;html=1;whiteSpace=wrap;connectable=0;strokeColor=inherit;overflow=hidden;fillColor=none;top=0;left=0;bottom=0;right=0;pointerEvents=1;fontSize=16;" vertex="1" parent="31">
                    <mxGeometry x="450" width="50" height="40" as="geometry">
                        <mxRectangle width="50" height="40" as="alternateBounds"/>
                    </mxGeometry>
                </mxCell>
                <mxCell id="35" value="" style="shape=tableRow;horizontal=0;startSize=0;swimlaneHead=0;swimlaneBody=0;strokeColor=inherit;top=0;left=0;bottom=0;right=0;collapsible=0;dropTarget=0;fillColor=none;points=[[0,0.5],[1,0.5]];portConstraint=eastwest;fontSize=16;" vertex="1" parent="30">
                    <mxGeometry y="40" width="500.0000000000002" height="40" as="geometry"/>
                </mxCell>
                <mxCell id="36" value="9:00~12:00" style="shape=partialRectangle;html=1;whiteSpace=wrap;connectable=0;strokeColor=inherit;overflow=hidden;fillColor=none;top=0;left=0;bottom=0;right=0;pointerEvents=1;fontSize=16;" vertex="1" parent="35">
                    <mxGeometry width="150" height="40" as="geometry">
                        <mxRectangle width="150" height="40" as="alternateBounds"/>
                    </mxGeometry>
                </mxCell>
                <mxCell id="60" value="〇" style="shape=partialRectangle;html=1;whiteSpace=wrap;connectable=0;strokeColor=inherit;overflow=hidden;fillColor=none;top=0;left=0;bottom=0;right=0;pointerEvents=1;fontSize=16;" vertex="1" parent="35">
                    <mxGeometry x="150" width="50" height="40" as="geometry">
                        <mxRectangle width="50" height="40" as="alternateBounds"/>
                    </mxGeometry>
                </mxCell>
                <mxCell id="78" value="&lt;span style=&quot;color: rgb(0, 0, 0); font-family: Helvetica; font-size: 16px; font-style: normal; font-variant-ligatures: normal; font-variant-caps: normal; font-weight: 400; letter-spacing: normal; orphans: 2; text-align: center; text-indent: 0px; text-transform: none; widows: 2; word-spacing: 0px; -webkit-text-stroke-width: 0px; white-space: normal; background-color: rgb(251, 251, 251); text-decoration-thickness: initial; text-decoration-style: initial; text-decoration-color: initial; float: none; display: inline !important;&quot;&gt;〇&lt;/span&gt;" style="shape=partialRectangle;html=1;whiteSpace=wrap;connectable=0;strokeColor=inherit;overflow=hidden;fillColor=none;top=0;left=0;bottom=0;right=0;pointerEvents=1;fontSize=16;" vertex="1" parent="35">
                    <mxGeometry x="200" width="50" height="40" as="geometry">
                        <mxRectangle width="50" height="40" as="alternateBounds"/>
                    </mxGeometry>
                </mxCell>
                <mxCell id="75" style="shape=partialRectangle;html=1;whiteSpace=wrap;connectable=0;strokeColor=inherit;overflow=hidden;fillColor=none;top=0;left=0;bottom=0;right=0;pointerEvents=1;fontSize=16;" vertex="1" parent="35">
                    <mxGeometry x="250" width="50" height="40" as="geometry">
                        <mxRectangle width="50" height="40" as="alternateBounds"/>
                    </mxGeometry>
                </mxCell>
                <mxCell id="72" value="&lt;span style=&quot;color: rgb(0, 0, 0);&quot;&gt;〇&lt;/span&gt;" style="shape=partialRectangle;html=1;whiteSpace=wrap;connectable=0;strokeColor=inherit;overflow=hidden;fillColor=none;top=0;left=0;bottom=0;right=0;pointerEvents=1;fontSize=16;" vertex="1" parent="35">
                    <mxGeometry x="300" width="50" height="40" as="geometry">
                        <mxRectangle width="50" height="40" as="alternateBounds"/>
                    </mxGeometry>
                </mxCell>
                <mxCell id="69" value="&lt;span style=&quot;color: rgb(0, 0, 0);&quot;&gt;〇&lt;/span&gt;" style="shape=partialRectangle;html=1;whiteSpace=wrap;connectable=0;strokeColor=inherit;overflow=hidden;fillColor=none;top=0;left=0;bottom=0;right=0;pointerEvents=1;fontSize=16;" vertex="1" parent="35">
                    <mxGeometry x="350" width="50" height="40" as="geometry">
                        <mxRectangle width="50" height="40" as="alternateBounds"/>
                    </mxGeometry>
                </mxCell>
                <mxCell id="66" value="&lt;span style=&quot;color: rgb(0, 0, 0);&quot;&gt;〇&lt;/span&gt;" style="shape=partialRectangle;html=1;whiteSpace=wrap;connectable=0;strokeColor=inherit;overflow=hidden;fillColor=none;top=0;left=0;bottom=0;right=0;pointerEvents=1;fontSize=16;" vertex="1" parent="35">
                    <mxGeometry x="400" width="50" height="40" as="geometry">
                        <mxRectangle width="50" height="40" as="alternateBounds"/>
                    </mxGeometry>
                </mxCell>
                <mxCell id="63" style="shape=partialRectangle;html=1;whiteSpace=wrap;connectable=0;strokeColor=inherit;overflow=hidden;fillColor=none;top=0;left=0;bottom=0;right=0;pointerEvents=1;fontSize=16;" vertex="1" parent="35">
                    <mxGeometry x="450" width="50" height="40" as="geometry">
                        <mxRectangle width="50" height="40" as="alternateBounds"/>
                    </mxGeometry>
                </mxCell>
                <mxCell id="39" value="" style="shape=tableRow;horizontal=0;startSize=0;swimlaneHead=0;swimlaneBody=0;strokeColor=inherit;top=0;left=0;bottom=0;right=0;collapsible=0;dropTarget=0;fillColor=none;points=[[0,0.5],[1,0.5]];portConstraint=eastwest;fontSize=16;" vertex="1" parent="30">
                    <mxGeometry y="80" width="500.0000000000002" height="40" as="geometry"/>
                </mxCell>
                <mxCell id="40" value="16:00~18:00" style="shape=partialRectangle;html=1;whiteSpace=wrap;connectable=0;strokeColor=inherit;overflow=hidden;fillColor=none;top=0;left=0;bottom=0;right=0;pointerEvents=1;fontSize=16;" vertex="1" parent="39">
                    <mxGeometry width="150" height="40" as="geometry">
                        <mxRectangle width="150" height="40" as="alternateBounds"/>
                    </mxGeometry>
                </mxCell>
                <mxCell id="61" value="&lt;span style=&quot;color: rgb(0, 0, 0); font-family: Helvetica; font-size: 16px; font-style: normal; font-variant-ligatures: normal; font-variant-caps: normal; font-weight: 400; letter-spacing: normal; orphans: 2; text-align: center; text-indent: 0px; text-transform: none; widows: 2; word-spacing: 0px; -webkit-text-stroke-width: 0px; white-space: normal; background-color: rgb(251, 251, 251); text-decoration-thickness: initial; text-decoration-style: initial; text-decoration-color: initial; float: none; display: inline !important;&quot;&gt;〇&lt;/span&gt;" style="shape=partialRectangle;html=1;whiteSpace=wrap;connectable=0;strokeColor=inherit;overflow=hidden;fillColor=none;top=0;left=0;bottom=0;right=0;pointerEvents=1;fontSize=16;" vertex="1" parent="39">
                    <mxGeometry x="150" width="50" height="40" as="geometry">
                        <mxRectangle width="50" height="40" as="alternateBounds"/>
                    </mxGeometry>
                </mxCell>
                <mxCell id="79" value="&lt;span style=&quot;color: rgb(0, 0, 0);&quot;&gt;〇&lt;/span&gt;" style="shape=partialRectangle;html=1;whiteSpace=wrap;connectable=0;strokeColor=inherit;overflow=hidden;fillColor=none;top=0;left=0;bottom=0;right=0;pointerEvents=1;fontSize=16;" vertex="1" parent="39">
                    <mxGeometry x="200" width="50" height="40" as="geometry">
                        <mxRectangle width="50" height="40" as="alternateBounds"/>
                    </mxGeometry>
                </mxCell>
                <mxCell id="76" style="shape=partialRectangle;html=1;whiteSpace=wrap;connectable=0;strokeColor=inherit;overflow=hidden;fillColor=none;top=0;left=0;bottom=0;right=0;pointerEvents=1;fontSize=16;" vertex="1" parent="39">
                    <mxGeometry x="250" width="50" height="40" as="geometry">
                        <mxRectangle width="50" height="40" as="alternateBounds"/>
                    </mxGeometry>
                </mxCell>
                <mxCell id="73" value="&lt;span style=&quot;color: rgb(0, 0, 0);&quot;&gt;〇&lt;/span&gt;" style="shape=partialRectangle;html=1;whiteSpace=wrap;connectable=0;strokeColor=inherit;overflow=hidden;fillColor=none;top=0;left=0;bottom=0;right=0;pointerEvents=1;fontSize=16;" vertex="1" parent="39">
                    <mxGeometry x="300" width="50" height="40" as="geometry">
                        <mxRectangle width="50" height="40" as="alternateBounds"/>
                    </mxGeometry>
                </mxCell>
                <mxCell id="70" value="&lt;span style=&quot;color: rgb(0, 0, 0);&quot;&gt;〇&lt;/span&gt;" style="shape=partialRectangle;html=1;whiteSpace=wrap;connectable=0;strokeColor=inherit;overflow=hidden;fillColor=none;top=0;left=0;bottom=0;right=0;pointerEvents=1;fontSize=16;" vertex="1" parent="39">
                    <mxGeometry x="350" width="50" height="40" as="geometry">
                        <mxRectangle width="50" height="40" as="alternateBounds"/>
                    </mxGeometry>
                </mxCell>
                <mxCell id="67" value="&lt;span style=&quot;color: rgb(0, 0, 0);&quot;&gt;〇&lt;/span&gt;" style="shape=partialRectangle;html=1;whiteSpace=wrap;connectable=0;strokeColor=inherit;overflow=hidden;fillColor=none;top=0;left=0;bottom=0;right=0;pointerEvents=1;fontSize=16;" vertex="1" parent="39">
                    <mxGeometry x="400" width="50" height="40" as="geometry">
                        <mxRectangle width="50" height="40" as="alternateBounds"/>
                    </mxGeometry>
                </mxCell>
                <mxCell id="64" style="shape=partialRectangle;html=1;whiteSpace=wrap;connectable=0;strokeColor=inherit;overflow=hidden;fillColor=none;top=0;left=0;bottom=0;right=0;pointerEvents=1;fontSize=16;" vertex="1" parent="39">
                    <mxGeometry x="450" width="50" height="40" as="geometry">
                        <mxRectangle width="50" height="40" as="alternateBounds"/>
                    </mxGeometry>
                </mxCell>
                <mxCell id="43" value="診療時間" style="rounded=0;whiteSpace=wrap;html=1;fontSize=25;align=left;" vertex="1" parent="1">
                    <mxGeometry x="110" y="360" width="500" height="50" as="geometry"/>
                </mxCell>
                <mxCell id="81" value="予約日の選択" style="rounded=0;whiteSpace=wrap;html=1;fontSize=25;align=left;" vertex="1" parent="1">
                    <mxGeometry x="110" y="650" width="500" height="50" as="geometry"/>
                </mxCell>
                <mxCell id="82" value="" style="shape=table;startSize=0;container=1;collapsible=0;childLayout=tableLayout;fontSize=16;" vertex="1" parent="1">
                    <mxGeometry x="110" y="770" width="500" height="390" as="geometry"/>
                </mxCell>
                <mxCell id="83" value="" style="shape=tableRow;horizontal=0;startSize=0;swimlaneHead=0;swimlaneBody=0;strokeColor=inherit;top=0;left=0;bottom=0;right=0;collapsible=0;dropTarget=0;fillColor=none;points=[[0,0.5],[1,0.5]];portConstraint=eastwest;fontSize=16;" vertex="1" parent="82">
                    <mxGeometry width="500" height="40" as="geometry"/>
                </mxCell>
                <mxCell id="85" value="月" style="shape=partialRectangle;html=1;whiteSpace=wrap;connectable=0;strokeColor=inherit;overflow=hidden;fillColor=none;top=0;left=0;bottom=0;right=0;pointerEvents=1;fontSize=16;" vertex="1" parent="83">
                    <mxGeometry width="71" height="40" as="geometry">
                        <mxRectangle width="71" height="40" as="alternateBounds"/>
                    </mxGeometry>
                </mxCell>
                <mxCell id="86" value="火" style="shape=partialRectangle;html=1;whiteSpace=wrap;connectable=0;strokeColor=inherit;overflow=hidden;fillColor=none;top=0;left=0;bottom=0;right=0;pointerEvents=1;fontSize=16;" vertex="1" parent="83">
                    <mxGeometry x="71" width="72" height="40" as="geometry">
                        <mxRectangle width="72" height="40" as="alternateBounds"/>
                    </mxGeometry>
                </mxCell>
                <mxCell id="87" value="水" style="shape=partialRectangle;html=1;whiteSpace=wrap;connectable=0;strokeColor=inherit;overflow=hidden;fillColor=none;top=0;left=0;bottom=0;right=0;pointerEvents=1;fontSize=16;" vertex="1" parent="83">
                    <mxGeometry x="143" width="71" height="40" as="geometry">
                        <mxRectangle width="71" height="40" as="alternateBounds"/>
                    </mxGeometry>
                </mxCell>
                <mxCell id="88" value="木" style="shape=partialRectangle;html=1;whiteSpace=wrap;connectable=0;strokeColor=inherit;overflow=hidden;fillColor=none;top=0;left=0;bottom=0;right=0;pointerEvents=1;fontSize=16;" vertex="1" parent="83">
                    <mxGeometry x="214" width="72" height="40" as="geometry">
                        <mxRectangle width="72" height="40" as="alternateBounds"/>
                    </mxGeometry>
                </mxCell>
                <mxCell id="89" value="金" style="shape=partialRectangle;html=1;whiteSpace=wrap;connectable=0;strokeColor=inherit;overflow=hidden;fillColor=none;top=0;left=0;bottom=0;right=0;pointerEvents=1;fontSize=16;" vertex="1" parent="83">
                    <mxGeometry x="286" width="71" height="40" as="geometry">
                        <mxRectangle width="71" height="40" as="alternateBounds"/>
                    </mxGeometry>
                </mxCell>
                <mxCell id="90" value="土" style="shape=partialRectangle;html=1;whiteSpace=wrap;connectable=0;strokeColor=inherit;overflow=hidden;fillColor=none;top=0;left=0;bottom=0;right=0;pointerEvents=1;fontSize=16;" vertex="1" parent="83">
                    <mxGeometry x="357" width="72" height="40" as="geometry">
                        <mxRectangle width="72" height="40" as="alternateBounds"/>
                    </mxGeometry>
                </mxCell>
                <mxCell id="91" value="日" style="shape=partialRectangle;html=1;whiteSpace=wrap;connectable=0;strokeColor=inherit;overflow=hidden;fillColor=none;top=0;left=0;bottom=0;right=0;pointerEvents=1;fontSize=16;" vertex="1" parent="83">
                    <mxGeometry x="429" width="71" height="40" as="geometry">
                        <mxRectangle width="71" height="40" as="alternateBounds"/>
                    </mxGeometry>
                </mxCell>
                <mxCell id="92" value="" style="shape=tableRow;horizontal=0;startSize=0;swimlaneHead=0;swimlaneBody=0;strokeColor=inherit;top=0;left=0;bottom=0;right=0;collapsible=0;dropTarget=0;fillColor=none;points=[[0,0.5],[1,0.5]];portConstraint=eastwest;fontSize=16;" vertex="1" parent="82">
                    <mxGeometry y="40" width="500" height="70" as="geometry"/>
                </mxCell>
                <mxCell id="94" value="&lt;div style=&quot;color: rgb(63, 63, 63); scrollbar-color: rgb(226, 226, 226) rgb(251, 251, 251);&quot;&gt;29&lt;/div&gt;&lt;span style=&quot;scrollbar-color: rgb(226, 226, 226) rgb(251, 251, 251); color: rgb(0, 0, 0);&quot;&gt;〇&lt;/span&gt;" style="shape=partialRectangle;html=1;whiteSpace=wrap;connectable=0;strokeColor=inherit;overflow=hidden;fillColor=none;top=0;left=0;bottom=0;right=0;pointerEvents=1;fontSize=16;" vertex="1" parent="92">
                    <mxGeometry width="71" height="70" as="geometry">
                        <mxRectangle width="71" height="70" as="alternateBounds"/>
                    </mxGeometry>
                </mxCell>
                <mxCell id="95" value="&lt;div style=&quot;scrollbar-color: rgb(226, 226, 226) rgb(251, 251, 251); color: rgb(63, 63, 63);&quot;&gt;&lt;font color=&quot;#000000&quot;&gt;30&lt;/font&gt;&lt;/div&gt;&lt;span style=&quot;scrollbar-color: rgb(226, 226, 226) rgb(251, 251, 251); color: rgb(0, 0, 0);&quot;&gt;〇&lt;/span&gt;" style="shape=partialRectangle;html=1;whiteSpace=wrap;connectable=0;strokeColor=inherit;overflow=hidden;fillColor=none;top=0;left=0;bottom=0;right=0;pointerEvents=1;fontSize=16;" vertex="1" parent="92">
                    <mxGeometry x="71" width="72" height="70" as="geometry">
                        <mxRectangle width="72" height="70" as="alternateBounds"/>
                    </mxGeometry>
                </mxCell>
                <mxCell id="96" value="&lt;div style=&quot;color: rgb(63, 63, 63); scrollbar-color: rgb(226, 226, 226) rgb(251, 251, 251);&quot;&gt;1&lt;/div&gt;&lt;div style=&quot;color: rgb(63, 63, 63); scrollbar-color: rgb(226, 226, 226) rgb(251, 251, 251);&quot;&gt;&lt;br&gt;&lt;/div&gt;" style="shape=partialRectangle;html=1;whiteSpace=wrap;connectable=0;strokeColor=inherit;overflow=hidden;fillColor=none;top=0;left=0;bottom=0;right=0;pointerEvents=1;fontSize=16;" vertex="1" parent="92">
                    <mxGeometry x="143" width="71" height="70" as="geometry">
                        <mxRectangle width="71" height="70" as="alternateBounds"/>
                    </mxGeometry>
                </mxCell>
                <mxCell id="97" value="&lt;div&gt;&lt;span style=&quot;color: rgb(0, 0, 0);&quot;&gt;2&lt;/span&gt;&lt;/div&gt;&lt;span style=&quot;color: rgb(0, 0, 0);&quot;&gt;〇&lt;/span&gt;" style="shape=partialRectangle;html=1;whiteSpace=wrap;connectable=0;strokeColor=inherit;overflow=hidden;fillColor=none;top=0;left=0;bottom=0;right=0;pointerEvents=1;fontSize=16;" vertex="1" parent="92">
                    <mxGeometry x="214" width="72" height="70" as="geometry">
                        <mxRectangle width="72" height="70" as="alternateBounds"/>
                    </mxGeometry>
                </mxCell>
                <mxCell id="98" value="&lt;div style=&quot;scrollbar-color: rgb(226, 226, 226) rgb(251, 251, 251); color: rgb(63, 63, 63);&quot;&gt;&lt;span style=&quot;background-color: transparent;&quot;&gt;&lt;font color=&quot;#000000&quot;&gt;3&lt;/font&gt;&lt;/span&gt;&lt;/div&gt;&lt;div style=&quot;scrollbar-color: rgb(226, 226, 226) rgb(251, 251, 251); color: rgb(63, 63, 63);&quot;&gt;&lt;font color=&quot;#000000&quot;&gt;〇&lt;/font&gt;&lt;/div&gt;" style="shape=partialRectangle;html=1;whiteSpace=wrap;connectable=0;strokeColor=inherit;overflow=hidden;fillColor=none;top=0;left=0;bottom=0;right=0;pointerEvents=1;fontSize=16;" vertex="1" parent="92">
                    <mxGeometry x="286" width="71" height="70" as="geometry">
                        <mxRectangle width="71" height="70" as="alternateBounds"/>
                    </mxGeometry>
                </mxCell>
                <mxCell id="99" value="&lt;div style=&quot;scrollbar-color: rgb(226, 226, 226) rgb(251, 251, 251); color: rgb(63, 63, 63);&quot;&gt;&lt;font color=&quot;#000000&quot;&gt;4&lt;/font&gt;&lt;/div&gt;&lt;span style=&quot;scrollbar-color: rgb(226, 226, 226) rgb(251, 251, 251); color: rgb(0, 0, 0);&quot;&gt;〇&lt;/span&gt;" style="shape=partialRectangle;html=1;whiteSpace=wrap;connectable=0;strokeColor=inherit;overflow=hidden;fillColor=none;top=0;left=0;bottom=0;right=0;pointerEvents=1;fontSize=16;" vertex="1" parent="92">
                    <mxGeometry x="357" width="72" height="70" as="geometry">
                        <mxRectangle width="72" height="70" as="alternateBounds"/>
                    </mxGeometry>
                </mxCell>
                <mxCell id="100" value="&lt;div style=&quot;scrollbar-color: rgb(226, 226, 226) rgb(251, 251, 251); color: rgb(63, 63, 63);&quot;&gt;&lt;font color=&quot;#000000&quot;&gt;5&lt;/font&gt;&lt;/div&gt;" style="shape=partialRectangle;html=1;whiteSpace=wrap;connectable=0;strokeColor=inherit;overflow=hidden;fillColor=none;top=0;left=0;bottom=0;right=0;pointerEvents=1;fontSize=16;" vertex="1" parent="92">
                    <mxGeometry x="429" width="71" height="70" as="geometry">
                        <mxRectangle width="71" height="70" as="alternateBounds"/>
                    </mxGeometry>
                </mxCell>
                <mxCell id="150" style="shape=tableRow;horizontal=0;startSize=0;swimlaneHead=0;swimlaneBody=0;strokeColor=inherit;top=0;left=0;bottom=0;right=0;collapsible=0;dropTarget=0;fillColor=none;points=[[0,0.5],[1,0.5]];portConstraint=eastwest;fontSize=16;" vertex="1" parent="82">
                    <mxGeometry y="110" width="500" height="70" as="geometry"/>
                </mxCell>
                <mxCell id="151" style="shape=partialRectangle;html=1;whiteSpace=wrap;connectable=0;strokeColor=inherit;overflow=hidden;fillColor=none;top=0;left=0;bottom=0;right=0;pointerEvents=1;fontSize=16;" vertex="1" parent="150">
                    <mxGeometry width="71" height="70" as="geometry">
                        <mxRectangle width="71" height="70" as="alternateBounds"/>
                    </mxGeometry>
                </mxCell>
                <mxCell id="152" style="shape=partialRectangle;html=1;whiteSpace=wrap;connectable=0;strokeColor=inherit;overflow=hidden;fillColor=none;top=0;left=0;bottom=0;right=0;pointerEvents=1;fontSize=16;" vertex="1" parent="150">
                    <mxGeometry x="71" width="72" height="70" as="geometry">
                        <mxRectangle width="72" height="70" as="alternateBounds"/>
                    </mxGeometry>
                </mxCell>
                <mxCell id="153" style="shape=partialRectangle;html=1;whiteSpace=wrap;connectable=0;strokeColor=inherit;overflow=hidden;fillColor=none;top=0;left=0;bottom=0;right=0;pointerEvents=1;fontSize=16;" vertex="1" parent="150">
                    <mxGeometry x="143" width="71" height="70" as="geometry">
                        <mxRectangle width="71" height="70" as="alternateBounds"/>
                    </mxGeometry>
                </mxCell>
                <mxCell id="154" style="shape=partialRectangle;html=1;whiteSpace=wrap;connectable=0;strokeColor=inherit;overflow=hidden;fillColor=none;top=0;left=0;bottom=0;right=0;pointerEvents=1;fontSize=16;" vertex="1" parent="150">
                    <mxGeometry x="214" width="72" height="70" as="geometry">
                        <mxRectangle width="72" height="70" as="alternateBounds"/>
                    </mxGeometry>
                </mxCell>
                <mxCell id="155" style="shape=partialRectangle;html=1;whiteSpace=wrap;connectable=0;strokeColor=inherit;overflow=hidden;fillColor=none;top=0;left=0;bottom=0;right=0;pointerEvents=1;fontSize=16;" vertex="1" parent="150">
                    <mxGeometry x="286" width="71" height="70" as="geometry">
                        <mxRectangle width="71" height="70" as="alternateBounds"/>
                    </mxGeometry>
                </mxCell>
                <mxCell id="156" style="shape=partialRectangle;html=1;whiteSpace=wrap;connectable=0;strokeColor=inherit;overflow=hidden;fillColor=none;top=0;left=0;bottom=0;right=0;pointerEvents=1;fontSize=16;" vertex="1" parent="150">
                    <mxGeometry x="357" width="72" height="70" as="geometry">
                        <mxRectangle width="72" height="70" as="alternateBounds"/>
                    </mxGeometry>
                </mxCell>
                <mxCell id="157" style="shape=partialRectangle;html=1;whiteSpace=wrap;connectable=0;strokeColor=inherit;overflow=hidden;fillColor=none;top=0;left=0;bottom=0;right=0;pointerEvents=1;fontSize=16;" vertex="1" parent="150">
                    <mxGeometry x="429" width="71" height="70" as="geometry">
                        <mxRectangle width="71" height="70" as="alternateBounds"/>
                    </mxGeometry>
                </mxCell>
                <mxCell id="142" style="shape=tableRow;horizontal=0;startSize=0;swimlaneHead=0;swimlaneBody=0;strokeColor=inherit;top=0;left=0;bottom=0;right=0;collapsible=0;dropTarget=0;fillColor=none;points=[[0,0.5],[1,0.5]];portConstraint=eastwest;fontSize=16;" vertex="1" parent="82">
                    <mxGeometry y="180" width="500" height="70" as="geometry"/>
                </mxCell>
                <mxCell id="143" style="shape=partialRectangle;html=1;whiteSpace=wrap;connectable=0;strokeColor=inherit;overflow=hidden;fillColor=none;top=0;left=0;bottom=0;right=0;pointerEvents=1;fontSize=16;" vertex="1" parent="142">
                    <mxGeometry width="71" height="70" as="geometry">
                        <mxRectangle width="71" height="70" as="alternateBounds"/>
                    </mxGeometry>
                </mxCell>
                <mxCell id="144" style="shape=partialRectangle;html=1;whiteSpace=wrap;connectable=0;strokeColor=inherit;overflow=hidden;fillColor=none;top=0;left=0;bottom=0;right=0;pointerEvents=1;fontSize=16;" vertex="1" parent="142">
                    <mxGeometry x="71" width="72" height="70" as="geometry">
                        <mxRectangle width="72" height="70" as="alternateBounds"/>
                    </mxGeometry>
                </mxCell>
                <mxCell id="145" style="shape=partialRectangle;html=1;whiteSpace=wrap;connectable=0;strokeColor=inherit;overflow=hidden;fillColor=none;top=0;left=0;bottom=0;right=0;pointerEvents=1;fontSize=16;" vertex="1" parent="142">
                    <mxGeometry x="143" width="71" height="70" as="geometry">
                        <mxRectangle width="71" height="70" as="alternateBounds"/>
                    </mxGeometry>
                </mxCell>
                <mxCell id="146" style="shape=partialRectangle;html=1;whiteSpace=wrap;connectable=0;strokeColor=inherit;overflow=hidden;fillColor=none;top=0;left=0;bottom=0;right=0;pointerEvents=1;fontSize=16;" vertex="1" parent="142">
                    <mxGeometry x="214" width="72" height="70" as="geometry">
                        <mxRectangle width="72" height="70" as="alternateBounds"/>
                    </mxGeometry>
                </mxCell>
                <mxCell id="147" style="shape=partialRectangle;html=1;whiteSpace=wrap;connectable=0;strokeColor=inherit;overflow=hidden;fillColor=none;top=0;left=0;bottom=0;right=0;pointerEvents=1;fontSize=16;" vertex="1" parent="142">
                    <mxGeometry x="286" width="71" height="70" as="geometry">
                        <mxRectangle width="71" height="70" as="alternateBounds"/>
                    </mxGeometry>
                </mxCell>
                <mxCell id="148" style="shape=partialRectangle;html=1;whiteSpace=wrap;connectable=0;strokeColor=inherit;overflow=hidden;fillColor=none;top=0;left=0;bottom=0;right=0;pointerEvents=1;fontSize=16;" vertex="1" parent="142">
                    <mxGeometry x="357" width="72" height="70" as="geometry">
                        <mxRectangle width="72" height="70" as="alternateBounds"/>
                    </mxGeometry>
                </mxCell>
                <mxCell id="149" style="shape=partialRectangle;html=1;whiteSpace=wrap;connectable=0;strokeColor=inherit;overflow=hidden;fillColor=none;top=0;left=0;bottom=0;right=0;pointerEvents=1;fontSize=16;" vertex="1" parent="142">
                    <mxGeometry x="429" width="71" height="70" as="geometry">
                        <mxRectangle width="71" height="70" as="alternateBounds"/>
                    </mxGeometry>
                </mxCell>
                <mxCell id="134" style="shape=tableRow;horizontal=0;startSize=0;swimlaneHead=0;swimlaneBody=0;strokeColor=inherit;top=0;left=0;bottom=0;right=0;collapsible=0;dropTarget=0;fillColor=none;points=[[0,0.5],[1,0.5]];portConstraint=eastwest;fontSize=16;" vertex="1" parent="82">
                    <mxGeometry y="250" width="500" height="70" as="geometry"/>
                </mxCell>
                <mxCell id="135" style="shape=partialRectangle;html=1;whiteSpace=wrap;connectable=0;strokeColor=inherit;overflow=hidden;fillColor=none;top=0;left=0;bottom=0;right=0;pointerEvents=1;fontSize=16;" vertex="1" parent="134">
                    <mxGeometry width="71" height="70" as="geometry">
                        <mxRectangle width="71" height="70" as="alternateBounds"/>
                    </mxGeometry>
                </mxCell>
                <mxCell id="136" style="shape=partialRectangle;html=1;whiteSpace=wrap;connectable=0;strokeColor=inherit;overflow=hidden;fillColor=none;top=0;left=0;bottom=0;right=0;pointerEvents=1;fontSize=16;" vertex="1" parent="134">
                    <mxGeometry x="71" width="72" height="70" as="geometry">
                        <mxRectangle width="72" height="70" as="alternateBounds"/>
                    </mxGeometry>
                </mxCell>
                <mxCell id="137" style="shape=partialRectangle;html=1;whiteSpace=wrap;connectable=0;strokeColor=inherit;overflow=hidden;fillColor=none;top=0;left=0;bottom=0;right=0;pointerEvents=1;fontSize=16;" vertex="1" parent="134">
                    <mxGeometry x="143" width="71" height="70" as="geometry">
                        <mxRectangle width="71" height="70" as="alternateBounds"/>
                    </mxGeometry>
                </mxCell>
                <mxCell id="138" style="shape=partialRectangle;html=1;whiteSpace=wrap;connectable=0;strokeColor=inherit;overflow=hidden;fillColor=none;top=0;left=0;bottom=0;right=0;pointerEvents=1;fontSize=16;" vertex="1" parent="134">
                    <mxGeometry x="214" width="72" height="70" as="geometry">
                        <mxRectangle width="72" height="70" as="alternateBounds"/>
                    </mxGeometry>
                </mxCell>
                <mxCell id="139" style="shape=partialRectangle;html=1;whiteSpace=wrap;connectable=0;strokeColor=inherit;overflow=hidden;fillColor=none;top=0;left=0;bottom=0;right=0;pointerEvents=1;fontSize=16;" vertex="1" parent="134">
                    <mxGeometry x="286" width="71" height="70" as="geometry">
                        <mxRectangle width="71" height="70" as="alternateBounds"/>
                    </mxGeometry>
                </mxCell>
                <mxCell id="140" style="shape=partialRectangle;html=1;whiteSpace=wrap;connectable=0;strokeColor=inherit;overflow=hidden;fillColor=none;top=0;left=0;bottom=0;right=0;pointerEvents=1;fontSize=16;" vertex="1" parent="134">
                    <mxGeometry x="357" width="72" height="70" as="geometry">
                        <mxRectangle width="72" height="70" as="alternateBounds"/>
                    </mxGeometry>
                </mxCell>
                <mxCell id="141" style="shape=partialRectangle;html=1;whiteSpace=wrap;connectable=0;strokeColor=inherit;overflow=hidden;fillColor=none;top=0;left=0;bottom=0;right=0;pointerEvents=1;fontSize=16;" vertex="1" parent="134">
                    <mxGeometry x="429" width="71" height="70" as="geometry">
                        <mxRectangle width="71" height="70" as="alternateBounds"/>
                    </mxGeometry>
                </mxCell>
                <mxCell id="158" style="shape=tableRow;horizontal=0;startSize=0;swimlaneHead=0;swimlaneBody=0;strokeColor=inherit;top=0;left=0;bottom=0;right=0;collapsible=0;dropTarget=0;fillColor=none;points=[[0,0.5],[1,0.5]];portConstraint=eastwest;fontSize=16;" vertex="1" parent="82">
                    <mxGeometry y="320" width="500" height="70" as="geometry"/>
                </mxCell>
                <mxCell id="159" style="shape=partialRectangle;html=1;whiteSpace=wrap;connectable=0;strokeColor=inherit;overflow=hidden;fillColor=none;top=0;left=0;bottom=0;right=0;pointerEvents=1;fontSize=16;" vertex="1" parent="158">
                    <mxGeometry width="71" height="70" as="geometry">
                        <mxRectangle width="71" height="70" as="alternateBounds"/>
                    </mxGeometry>
                </mxCell>
                <mxCell id="160" style="shape=partialRectangle;html=1;whiteSpace=wrap;connectable=0;strokeColor=inherit;overflow=hidden;fillColor=none;top=0;left=0;bottom=0;right=0;pointerEvents=1;fontSize=16;" vertex="1" parent="158">
                    <mxGeometry x="71" width="72" height="70" as="geometry">
                        <mxRectangle width="72" height="70" as="alternateBounds"/>
                    </mxGeometry>
                </mxCell>
                <mxCell id="161" style="shape=partialRectangle;html=1;whiteSpace=wrap;connectable=0;strokeColor=inherit;overflow=hidden;fillColor=none;top=0;left=0;bottom=0;right=0;pointerEvents=1;fontSize=16;" vertex="1" parent="158">
                    <mxGeometry x="143" width="71" height="70" as="geometry">
                        <mxRectangle width="71" height="70" as="alternateBounds"/>
                    </mxGeometry>
                </mxCell>
                <mxCell id="162" style="shape=partialRectangle;html=1;whiteSpace=wrap;connectable=0;strokeColor=inherit;overflow=hidden;fillColor=none;top=0;left=0;bottom=0;right=0;pointerEvents=1;fontSize=16;" vertex="1" parent="158">
                    <mxGeometry x="214" width="72" height="70" as="geometry">
                        <mxRectangle width="72" height="70" as="alternateBounds"/>
                    </mxGeometry>
                </mxCell>
                <mxCell id="163" style="shape=partialRectangle;html=1;whiteSpace=wrap;connectable=0;strokeColor=inherit;overflow=hidden;fillColor=none;top=0;left=0;bottom=0;right=0;pointerEvents=1;fontSize=16;" vertex="1" parent="158">
                    <mxGeometry x="286" width="71" height="70" as="geometry">
                        <mxRectangle width="71" height="70" as="alternateBounds"/>
                    </mxGeometry>
                </mxCell>
                <mxCell id="164" style="shape=partialRectangle;html=1;whiteSpace=wrap;connectable=0;strokeColor=inherit;overflow=hidden;fillColor=none;top=0;left=0;bottom=0;right=0;pointerEvents=1;fontSize=16;" vertex="1" parent="158">
                    <mxGeometry x="357" width="72" height="70" as="geometry">
                        <mxRectangle width="72" height="70" as="alternateBounds"/>
                    </mxGeometry>
                </mxCell>
                <mxCell id="165" style="shape=partialRectangle;html=1;whiteSpace=wrap;connectable=0;strokeColor=inherit;overflow=hidden;fillColor=none;top=0;left=0;bottom=0;right=0;pointerEvents=1;fontSize=16;" vertex="1" parent="158">
                    <mxGeometry x="429" width="71" height="70" as="geometry">
                        <mxRectangle width="71" height="70" as="alternateBounds"/>
                    </mxGeometry>
                </mxCell>
                <mxCell id="166" value="&lt;font style=&quot;font-size: 17px;&quot;&gt;9月&lt;/font&gt;&lt;font style=&quot;font-size: 24px;&quot;&gt;　&lt;/font&gt;&lt;font style=&quot;font-size: 24px;&quot;&gt;2025年10月　&lt;/font&gt;&lt;font style=&quot;font-size: 17px;&quot;&gt;11月&lt;/font&gt;" style="text;html=1;align=center;verticalAlign=middle;resizable=0;points=[];autosize=1;strokeColor=none;fillColor=none;" vertex="1" parent="1">
                    <mxGeometry x="230" y="720" width="260" height="40" as="geometry"/>
                </mxCell>
                <mxCell id="167" value="&lt;span style=&quot;font-size: 17px;&quot;&gt;今月&lt;/span&gt;" style="text;html=1;align=center;verticalAlign=middle;resizable=0;points=[];autosize=1;strokeColor=default;fillColor=none;" vertex="1" parent="1">
                    <mxGeometry x="110" y="725" width="60" height="30" as="geometry"/>
                </mxCell>
                <mxCell id="168" value="&lt;span style=&quot;color: rgb(63, 63, 63); font-family: Helvetica; font-size: 17px; font-style: normal; font-variant-ligatures: normal; font-variant-caps: normal; font-weight: 400; letter-spacing: normal; orphans: 2; text-align: left; text-indent: 0px; text-transform: none; widows: 2; word-spacing: 0px; -webkit-text-stroke-width: 0px; white-space: normal; background-color: rgb(251, 251, 251); text-decoration-thickness: initial; text-decoration-style: initial; text-decoration-color: initial; float: none; display: inline !important;&quot;&gt;※祝日は休診日です。&lt;/span&gt;&lt;div&gt;&lt;span style=&quot;color: rgb(63, 63, 63); font-family: Helvetica; font-size: 17px; font-style: normal; font-variant-ligatures: normal; font-variant-caps: normal; font-weight: 400; letter-spacing: normal; orphans: 2; text-align: left; text-indent: 0px; text-transform: none; widows: 2; word-spacing: 0px; -webkit-text-stroke-width: 0px; white-space: normal; background-color: rgb(251, 251, 251); text-decoration-thickness: initial; text-decoration-style: initial; text-decoration-color: initial; float: none; display: inline !important;&quot;&gt;※予定が変更する場合もあります。&lt;/span&gt;&lt;/div&gt;" style="text;whiteSpace=wrap;html=1;" vertex="1" parent="1">
                    <mxGeometry x="110" y="550" width="300" height="50" as="geometry"/>
                </mxCell>
                <mxCell id="169" value="&lt;font style=&quot;font-size: 26px;&quot;&gt;診察予約フォーム&lt;/font&gt;" style="rounded=0;whiteSpace=wrap;html=1;verticalAlign=top;align=left;" vertex="1" parent="1">
                    <mxGeometry x="660" y="50" width="540" height="2110" as="geometry"/>
                </mxCell>
                <mxCell id="170" value="情報入力" style="rounded=0;whiteSpace=wrap;html=1;fontSize=25;align=left;" vertex="1" parent="1">
                    <mxGeometry x="680" y="110" width="500" height="50" as="geometry"/>
                </mxCell>
                <mxCell id="171" value="&lt;span style=&quot;font-size: 17px;&quot;&gt;診療時間帯を選択してください。&lt;/span&gt;" style="text;whiteSpace=wrap;html=1;" vertex="1" parent="1">
                    <mxGeometry x="680" y="180" width="300" height="40" as="geometry"/>
                </mxCell>
                <mxCell id="188" value="" style="group" vertex="1" connectable="0" parent="1">
                    <mxGeometry x="680" y="210" width="500" height="80" as="geometry"/>
                </mxCell>
                <mxCell id="175" value="" style="shape=table;startSize=0;container=1;collapsible=0;childLayout=tableLayout;fontSize=16;" vertex="1" parent="188">
                    <mxGeometry x="3" y="-1" width="500" height="80" as="geometry"/>
                </mxCell>
                <mxCell id="176" value="" style="shape=tableRow;horizontal=0;startSize=0;swimlaneHead=0;swimlaneBody=0;strokeColor=inherit;top=0;left=0;bottom=0;right=0;collapsible=0;dropTarget=0;fillColor=none;points=[[0,0.5],[1,0.5]];portConstraint=eastwest;fontSize=16;" vertex="1" parent="175">
                    <mxGeometry width="500" height="40" as="geometry"/>
                </mxCell>
                <mxCell id="177" value="　診療日" style="shape=partialRectangle;html=1;whiteSpace=wrap;connectable=0;strokeColor=inherit;overflow=hidden;fillColor=none;top=0;left=0;bottom=0;right=0;pointerEvents=1;fontSize=16;align=left;" vertex="1" parent="176">
                    <mxGeometry width="140" height="40" as="geometry">
                        <mxRectangle width="140" height="40" as="alternateBounds"/>
                    </mxGeometry>
                </mxCell>
                <mxCell id="178" value="&amp;nbsp; 2025年10月2日（木）" style="shape=partialRectangle;html=1;whiteSpace=wrap;connectable=0;strokeColor=inherit;overflow=hidden;fillColor=none;top=0;left=0;bottom=0;right=0;pointerEvents=1;fontSize=16;align=left;" vertex="1" parent="176">
                    <mxGeometry x="140" width="360" height="40" as="geometry">
                        <mxRectangle width="360" height="40" as="alternateBounds"/>
                    </mxGeometry>
                </mxCell>
                <mxCell id="179" value="" style="shape=tableRow;horizontal=0;startSize=0;swimlaneHead=0;swimlaneBody=0;strokeColor=inherit;top=0;left=0;bottom=0;right=0;collapsible=0;dropTarget=0;fillColor=none;points=[[0,0.5],[1,0.5]];portConstraint=eastwest;fontSize=16;" vertex="1" parent="175">
                    <mxGeometry y="40" width="500" height="40" as="geometry"/>
                </mxCell>
                <mxCell id="180" value="　診療時間帯" style="shape=partialRectangle;html=1;whiteSpace=wrap;connectable=0;strokeColor=inherit;overflow=hidden;fillColor=none;top=0;left=0;bottom=0;right=0;pointerEvents=1;fontSize=16;align=left;" vertex="1" parent="179">
                    <mxGeometry width="140" height="40" as="geometry">
                        <mxRectangle width="140" height="40" as="alternateBounds"/>
                    </mxGeometry>
                </mxCell>
                <mxCell id="181" value="" style="shape=partialRectangle;html=1;whiteSpace=wrap;connectable=0;strokeColor=inherit;overflow=hidden;fillColor=none;top=0;left=0;bottom=0;right=0;pointerEvents=1;fontSize=16;" vertex="1" parent="179">
                    <mxGeometry x="140" width="360" height="40" as="geometry">
                        <mxRectangle width="360" height="40" as="alternateBounds"/>
                    </mxGeometry>
                </mxCell>
                <mxCell id="174" value="9:00~9:30" style="rounded=0;whiteSpace=wrap;html=1;fontSize=25;align=center;" vertex="1" parent="188">
                    <mxGeometry x="150" y="45" width="193" height="30" as="geometry"/>
                </mxCell>
                <mxCell id="200" value="&lt;font style=&quot;color: rgb(255, 255, 255); font-size: 10px;&quot;&gt;必須&lt;/font&gt;" style="rounded=0;whiteSpace=wrap;html=1;fillColor=light-dark(#ff0000, #ededed);strokeColor=none;" vertex="1" parent="188">
                    <mxGeometry x="107" y="50" width="33" height="20" as="geometry"/>
                </mxCell>
                <mxCell id="189" value="&lt;span style=&quot;font-size: 17px;&quot;&gt;患者様情報&lt;/span&gt;" style="text;whiteSpace=wrap;html=1;" vertex="1" parent="1">
                    <mxGeometry x="680" y="310" width="300" height="40" as="geometry"/>
                </mxCell>
                <mxCell id="190" value="" style="group" vertex="1" connectable="0" parent="1">
                    <mxGeometry x="680" y="344" width="500" height="156" as="geometry"/>
                </mxCell>
                <mxCell id="191" value="" style="shape=table;startSize=0;container=1;collapsible=0;childLayout=tableLayout;fontSize=16;" vertex="1" parent="190">
                    <mxGeometry width="500" height="160" as="geometry"/>
                </mxCell>
                <mxCell id="192" value="" style="shape=tableRow;horizontal=0;startSize=0;swimlaneHead=0;swimlaneBody=0;strokeColor=inherit;top=0;left=0;bottom=0;right=0;collapsible=0;dropTarget=0;fillColor=none;points=[[0,0.5],[1,0.5]];portConstraint=eastwest;fontSize=16;" vertex="1" parent="191">
                    <mxGeometry width="500" height="40" as="geometry"/>
                </mxCell>
                <mxCell id="193" value="　氏名" style="shape=partialRectangle;html=1;whiteSpace=wrap;connectable=0;strokeColor=inherit;overflow=hidden;fillColor=none;top=0;left=0;bottom=0;right=0;pointerEvents=1;fontSize=16;align=left;" vertex="1" parent="192">
                    <mxGeometry width="180" height="40" as="geometry">
                        <mxRectangle width="180" height="40" as="alternateBounds"/>
                    </mxGeometry>
                </mxCell>
                <mxCell id="194" value="&amp;nbsp; 2025年10月2日（木）" style="shape=partialRectangle;html=1;whiteSpace=wrap;connectable=0;strokeColor=inherit;overflow=hidden;fillColor=none;top=0;left=0;bottom=0;right=0;pointerEvents=1;fontSize=16;align=left;" vertex="1" parent="192">
                    <mxGeometry x="180" width="320" height="40" as="geometry">
                        <mxRectangle width="320" height="40" as="alternateBounds"/>
                    </mxGeometry>
                </mxCell>
                <mxCell id="195" value="" style="shape=tableRow;horizontal=0;startSize=0;swimlaneHead=0;swimlaneBody=0;strokeColor=inherit;top=0;left=0;bottom=0;right=0;collapsible=0;dropTarget=0;fillColor=none;points=[[0,0.5],[1,0.5]];portConstraint=eastwest;fontSize=16;" vertex="1" parent="191">
                    <mxGeometry y="40" width="500" height="40" as="geometry"/>
                </mxCell>
                <mxCell id="196" value="　氏名（ふりがな）" style="shape=partialRectangle;html=1;whiteSpace=wrap;connectable=0;strokeColor=inherit;overflow=hidden;fillColor=none;top=0;left=0;bottom=0;right=0;pointerEvents=1;fontSize=16;align=left;" vertex="1" parent="195">
                    <mxGeometry width="180" height="40" as="geometry">
                        <mxRectangle width="180" height="40" as="alternateBounds"/>
                    </mxGeometry>
                </mxCell>
                <mxCell id="197" value="" style="shape=partialRectangle;html=1;whiteSpace=wrap;connectable=0;strokeColor=inherit;overflow=hidden;fillColor=none;top=0;left=0;bottom=0;right=0;pointerEvents=1;fontSize=16;" vertex="1" parent="195">
                    <mxGeometry x="180" width="320" height="40" as="geometry">
                        <mxRectangle width="320" height="40" as="alternateBounds"/>
                    </mxGeometry>
                </mxCell>
                <mxCell id="206" style="shape=tableRow;horizontal=0;startSize=0;swimlaneHead=0;swimlaneBody=0;strokeColor=inherit;top=0;left=0;bottom=0;right=0;collapsible=0;dropTarget=0;fillColor=none;points=[[0,0.5],[1,0.5]];portConstraint=eastwest;fontSize=16;" vertex="1" parent="191">
                    <mxGeometry y="80" width="500" height="40" as="geometry"/>
                </mxCell>
                <mxCell id="207" value="　生年月日" style="shape=partialRectangle;html=1;whiteSpace=wrap;connectable=0;strokeColor=inherit;overflow=hidden;fillColor=none;top=0;left=0;bottom=0;right=0;pointerEvents=1;fontSize=16;align=left;" vertex="1" parent="206">
                    <mxGeometry width="180" height="40" as="geometry">
                        <mxRectangle width="180" height="40" as="alternateBounds"/>
                    </mxGeometry>
                </mxCell>
                <mxCell id="208" style="shape=partialRectangle;html=1;whiteSpace=wrap;connectable=0;strokeColor=inherit;overflow=hidden;fillColor=none;top=0;left=0;bottom=0;right=0;pointerEvents=1;fontSize=16;" vertex="1" parent="206">
                    <mxGeometry x="180" width="320" height="40" as="geometry">
                        <mxRectangle width="320" height="40" as="alternateBounds"/>
                    </mxGeometry>
                </mxCell>
                <mxCell id="203" style="shape=tableRow;horizontal=0;startSize=0;swimlaneHead=0;swimlaneBody=0;strokeColor=inherit;top=0;left=0;bottom=0;right=0;collapsible=0;dropTarget=0;fillColor=none;points=[[0,0.5],[1,0.5]];portConstraint=eastwest;fontSize=16;" vertex="1" parent="191">
                    <mxGeometry y="120" width="500" height="40" as="geometry"/>
                </mxCell>
                <mxCell id="204" value="　性別" style="shape=partialRectangle;html=1;whiteSpace=wrap;connectable=0;strokeColor=inherit;overflow=hidden;fillColor=none;top=0;left=0;bottom=0;right=0;pointerEvents=1;fontSize=16;align=left;" vertex="1" parent="203">
                    <mxGeometry width="180" height="40" as="geometry">
                        <mxRectangle width="180" height="40" as="alternateBounds"/>
                    </mxGeometry>
                </mxCell>
                <mxCell id="205" style="shape=partialRectangle;html=1;whiteSpace=wrap;connectable=0;strokeColor=inherit;overflow=hidden;fillColor=none;top=0;left=0;bottom=0;right=0;pointerEvents=1;fontSize=16;" vertex="1" parent="203">
                    <mxGeometry x="180" width="320" height="40" as="geometry">
                        <mxRectangle width="320" height="40" as="alternateBounds"/>
                    </mxGeometry>
                </mxCell>
                <mxCell id="198" value="&lt;font style=&quot;font-size: 22px;&quot;&gt;9:00~9:30&lt;/font&gt;" style="rounded=0;whiteSpace=wrap;html=1;fontSize=25;align=left;" vertex="1" parent="190">
                    <mxGeometry x="190" y="46" width="193" height="30" as="geometry"/>
                </mxCell>
                <mxCell id="226" value="&lt;font style=&quot;font-size: 21px;&quot;&gt;2002年5月3日&lt;/font&gt;" style="rounded=0;whiteSpace=wrap;html=1;fontSize=25;align=left;" vertex="1" parent="190">
                    <mxGeometry x="190" y="86" width="193" height="30" as="geometry"/>
                </mxCell>
                <mxCell id="227" value="&lt;font style=&quot;font-size: 21px;&quot;&gt;○ 男性 ○女性&lt;/font&gt;" style="rounded=0;whiteSpace=wrap;html=1;fontSize=25;align=left;strokeColor=none;" vertex="1" parent="190">
                    <mxGeometry x="190" y="126" width="193" height="30" as="geometry"/>
                </mxCell>
                <mxCell id="199" value="&lt;font style=&quot;color: rgb(255, 255, 255); font-size: 10px;&quot;&gt;必須&lt;/font&gt;" style="rounded=0;whiteSpace=wrap;html=1;fillColor=light-dark(#ff0000, #ededed);strokeColor=none;" vertex="1" parent="1">
                    <mxGeometry x="812" y="356" width="33" height="20" as="geometry"/>
                </mxCell>
                <mxCell id="201" value="&lt;font style=&quot;color: rgb(255, 255, 255); font-size: 10px;&quot;&gt;必須&lt;/font&gt;" style="rounded=0;whiteSpace=wrap;html=1;fillColor=light-dark(#ff0000, #ededed);strokeColor=none;" vertex="1" parent="1">
                    <mxGeometry x="784" y="218" width="33" height="20" as="geometry"/>
                </mxCell>
                <mxCell id="202" value="&lt;font style=&quot;color: rgb(255, 255, 255); font-size: 10px;&quot;&gt;必須&lt;/font&gt;" style="rounded=0;whiteSpace=wrap;html=1;fillColor=light-dark(#ff0000, #ededed);strokeColor=none;" vertex="1" parent="1">
                    <mxGeometry x="819" y="395" width="33" height="20" as="geometry"/>
                </mxCell>
                <mxCell id="209" value="&lt;font style=&quot;color: rgb(255, 255, 255); font-size: 10px;&quot;&gt;必須&lt;/font&gt;" style="rounded=0;whiteSpace=wrap;html=1;fillColor=light-dark(#ff0000, #ededed);strokeColor=none;" vertex="1" parent="1">
                    <mxGeometry x="817" y="434" width="33" height="20" as="geometry"/>
                </mxCell>
                <mxCell id="210" value="&lt;font style=&quot;color: rgb(255, 255, 255); font-size: 10px;&quot;&gt;必須&lt;/font&gt;" style="rounded=0;whiteSpace=wrap;html=1;fillColor=light-dark(#ff0000, #ededed);strokeColor=none;" vertex="1" parent="1">
                    <mxGeometry x="817" y="475" width="33" height="20" as="geometry"/>
                </mxCell>
                <mxCell id="242" value="&lt;span style=&quot;font-size: 17px;&quot;&gt;ご連絡先&lt;/span&gt;" style="text;whiteSpace=wrap;html=1;" vertex="1" parent="1">
                    <mxGeometry x="680" y="520" width="300" height="40" as="geometry"/>
                </mxCell>
                <mxCell id="243" value="&lt;span style=&quot;font-size: 17px;&quot;&gt;電話番号&lt;/span&gt;" style="text;whiteSpace=wrap;html=1;" vertex="1" parent="1">
                    <mxGeometry x="680" y="560" width="90" height="40" as="geometry"/>
                </mxCell>
                <mxCell id="244" value="&lt;font style=&quot;font-size: 22px;&quot;&gt;08011112222&lt;/font&gt;" style="rounded=0;whiteSpace=wrap;html=1;fontSize=25;align=left;" vertex="1" parent="1">
                    <mxGeometry x="680.5" y="590" width="310" height="30" as="geometry"/>
                </mxCell>
                <mxCell id="245" value="&lt;span style=&quot;color: rgb(71, 71, 71); font-family: メイリオ, Meiryo, &amp;quot;ヒラギノ角ゴ Pro W3&amp;quot;, &amp;quot;Hiragino Kaku Gothic Pro&amp;quot;, Osaka, &amp;quot;ＭＳ Ｐゴシック&amp;quot;, &amp;quot;MS PGothic&amp;quot;, sans-serif; font-size: 14px; font-style: normal; font-variant-ligatures: normal; font-variant-caps: normal; font-weight: 400; letter-spacing: normal; orphans: 2; text-align: left; text-indent: 0px; text-transform: none; widows: 2; word-spacing: 0px; -webkit-text-stroke-width: 0px; white-space: normal; background-color: rgb(255, 255, 255); text-decoration-thickness: initial; text-decoration-style: initial; text-decoration-color: initial; display: inline !important; float: none;&quot;&gt;ハイフンなしで、固定電話の場合は市外局番から入力してください。&lt;/span&gt;" style="text;whiteSpace=wrap;html=1;" vertex="1" parent="1">
                    <mxGeometry x="680" y="620" width="470" height="30" as="geometry"/>
                </mxCell>
                <mxCell id="246" value="&lt;span style=&quot;font-size: 17px;&quot;&gt;メールアドレス&lt;/span&gt;" style="text;whiteSpace=wrap;html=1;" vertex="1" parent="1">
                    <mxGeometry x="680" y="660" width="140" height="40" as="geometry"/>
                </mxCell>
                <mxCell id="247" value="&lt;font style=&quot;font-size: 22px;&quot;&gt;example@example.com&lt;/font&gt;" style="rounded=0;whiteSpace=wrap;html=1;fontSize=25;align=left;" vertex="1" parent="1">
                    <mxGeometry x="680.5" y="690" width="310" height="30" as="geometry"/>
                </mxCell>
                <mxCell id="248" value="&lt;font style=&quot;color: rgb(255, 255, 255); font-size: 10px;&quot;&gt;必須&lt;/font&gt;" style="rounded=0;whiteSpace=wrap;html=1;fillColor=light-dark(#ff0000, #ededed);strokeColor=none;" vertex="1" parent="1">
                    <mxGeometry x="760" y="565" width="33" height="20" as="geometry"/>
                </mxCell>
                <mxCell id="249" value="&lt;span style=&quot;color: rgb(71, 71, 71); font-family: メイリオ, Meiryo, &amp;quot;ヒラギノ角ゴ Pro W3&amp;quot;, &amp;quot;Hiragino Kaku Gothic Pro&amp;quot;, Osaka, &amp;quot;ＭＳ Ｐゴシック&amp;quot;, &amp;quot;MS PGothic&amp;quot;, sans-serif; font-style: normal; font-variant-ligatures: normal; font-variant-caps: normal; font-weight: 400; letter-spacing: normal; orphans: 2; text-align: left; text-indent: 0px; text-transform: none; widows: 2; word-spacing: 0px; -webkit-text-stroke-width: 0px; white-space: normal; background-color: rgb(255, 255, 255); text-decoration-thickness: initial; text-decoration-style: initial; text-decoration-color: initial; float: none; display: inline !important;&quot;&gt;&lt;font&gt;予約フォーム送信後、メールアドレスを入力された場合には確認メールをお送りします。&lt;/font&gt;&lt;/span&gt;&lt;div&gt;&lt;span style=&quot;color: rgb(71, 71, 71); font-family: メイリオ, Meiryo, &amp;quot;ヒラギノ角ゴ Pro W3&amp;quot;, &amp;quot;Hiragino Kaku Gothic Pro&amp;quot;, Osaka, &amp;quot;ＭＳ Ｐゴシック&amp;quot;, &amp;quot;MS PGothic&amp;quot;, sans-serif; font-style: normal; font-variant-ligatures: normal; font-variant-caps: normal; font-weight: 400; letter-spacing: normal; orphans: 2; text-align: left; text-indent: 0px; text-transform: none; widows: 2; word-spacing: 0px; -webkit-text-stroke-width: 0px; white-space: normal; background-color: rgb(255, 255, 255); text-decoration-thickness: initial; text-decoration-style: initial; text-decoration-color: initial; float: none; display: inline !important;&quot;&gt;&lt;font&gt;予約をキャンセルされる場合は、お電話でのみ受け付けております。&lt;br data-end=&quot;145&quot; data-start=&quot;142&quot;&gt;&lt;br&gt;メールアドレスを入力された方は確認メールに記載の「予約番号」を、&lt;br data-end=&quot;184&quot; data-start=&quot;181&quot;&gt;入力されなかった方は「氏名・生年月日・電話番号」などの患者様情報をお伝えいただくことで、確認を行います。&lt;/font&gt;&lt;/span&gt;&lt;/div&gt;" style="text;whiteSpace=wrap;html=1;" vertex="1" parent="1">
                    <mxGeometry x="680" y="730" width="500" height="100" as="geometry"/>
                </mxCell>
                <mxCell id="250" value="&lt;span style=&quot;font-size: 17px;&quot;&gt;メールアドレス（確認用）&lt;/span&gt;" style="text;whiteSpace=wrap;html=1;" vertex="1" parent="1">
                    <mxGeometry x="680" y="830" width="220" height="40" as="geometry"/>
                </mxCell>
                <mxCell id="251" value="&lt;font style=&quot;font-size: 22px;&quot;&gt;example@example.com&lt;/font&gt;" style="rounded=0;whiteSpace=wrap;html=1;fontSize=25;align=left;" vertex="1" parent="1">
                    <mxGeometry x="680.5" y="860" width="310" height="30" as="geometry"/>
                </mxCell>
                <mxCell id="252" value="&lt;span style=&quot;color: rgb(71, 71, 71); font-family: メイリオ, Meiryo, &amp;quot;ヒラギノ角ゴ Pro W3&amp;quot;, &amp;quot;Hiragino Kaku Gothic Pro&amp;quot;, Osaka, &amp;quot;ＭＳ Ｐゴシック&amp;quot;, &amp;quot;MS PGothic&amp;quot;, sans-serif; font-size: 14px; font-style: normal; font-variant-ligatures: normal; font-variant-caps: normal; font-weight: 400; letter-spacing: normal; orphans: 2; text-align: left; text-indent: 0px; text-transform: none; widows: 2; word-spacing: 0px; -webkit-text-stroke-width: 0px; white-space: normal; background-color: rgb(255, 255, 255); text-decoration-thickness: initial; text-decoration-style: initial; text-decoration-color: initial; display: inline !important; float: none;&quot;&gt;診療の参考となりますのでご記入ください。&lt;/span&gt;" style="text;whiteSpace=wrap;html=1;" vertex="1" parent="1">
                    <mxGeometry x="678.5" y="930" width="310" height="30" as="geometry"/>
                </mxCell>
                <mxCell id="253" value="&lt;span style=&quot;color: rgb(71, 71, 71); font-family: メイリオ, Meiryo, &amp;quot;ヒラギノ角ゴ Pro W3&amp;quot;, &amp;quot;Hiragino Kaku Gothic Pro&amp;quot;, Osaka, &amp;quot;ＭＳ Ｐゴシック&amp;quot;, &amp;quot;MS PGothic&amp;quot;, sans-serif; font-size: 14px; font-style: normal; font-variant-ligatures: normal; font-variant-caps: normal; font-weight: 400; letter-spacing: normal; orphans: 2; text-align: left; text-indent: 0px; text-transform: none; widows: 2; word-spacing: 0px; -webkit-text-stroke-width: 0px; white-space: normal; background-color: rgb(255, 255, 255); text-decoration-thickness: initial; text-decoration-style: initial; text-decoration-color: initial; float: none; display: inline !important;&quot;&gt;１．いつ頃から症状がありますか？※複数選択可能&lt;/span&gt;" style="text;whiteSpace=wrap;html=1;" vertex="1" parent="1">
                    <mxGeometry x="678.5" y="970" width="341.5" height="30" as="geometry"/>
                </mxCell>
                <mxCell id="254" value="&lt;font face=&quot;メイリオ, Meiryo, ヒラギノ角ゴ Pro W3, Hiragino Kaku Gothic Pro, Osaka, ＭＳ Ｐゴシック, MS PGothic, sans-serif&quot;&gt;&lt;span style=&quot;font-size: 14px; background-color: rgb(255, 255, 255);&quot;&gt;□ 今日（来院日　当日）&lt;/span&gt;&lt;/font&gt;" style="text;whiteSpace=wrap;html=1;" vertex="1" parent="1">
                    <mxGeometry x="678.5" y="1000" width="341.5" height="30" as="geometry"/>
                </mxCell>
                <mxCell id="255" value="&lt;font face=&quot;メイリオ, Meiryo, ヒラギノ角ゴ Pro W3, Hiragino Kaku Gothic Pro, Osaka, ＭＳ Ｐゴシック, MS PGothic, sans-serif&quot;&gt;&lt;span style=&quot;font-size: 14px; background-color: rgb(255, 255, 255);&quot;&gt;□ 昨日（来院日　前日）&lt;/span&gt;&lt;/font&gt;" style="text;whiteSpace=wrap;html=1;" vertex="1" parent="1">
                    <mxGeometry x="678.5" y="1030" width="341.5" height="30" as="geometry"/>
                </mxCell>
                <mxCell id="256" value="&lt;font face=&quot;メイリオ, Meiryo, ヒラギノ角ゴ Pro W3, Hiragino Kaku Gothic Pro, Osaka, ＭＳ Ｐゴシック, MS PGothic, sans-serif&quot;&gt;&lt;span style=&quot;font-size: 14px; background-color: rgb(255, 255, 255);&quot;&gt;□ 2、3日前&lt;/span&gt;&lt;/font&gt;" style="text;whiteSpace=wrap;html=1;" vertex="1" parent="1">
                    <mxGeometry x="678.5" y="1060" width="91.5" height="30" as="geometry"/>
                </mxCell>
                <mxCell id="257" value="&lt;font face=&quot;メイリオ, Meiryo, ヒラギノ角ゴ Pro W3, Hiragino Kaku Gothic Pro, Osaka, ＭＳ Ｐゴシック, MS PGothic, sans-serif&quot;&gt;&lt;span style=&quot;font-size: 14px; background-color: rgb(255, 255, 255);&quot;&gt;□ 4日以上前&lt;/span&gt;&lt;/font&gt;" style="text;whiteSpace=wrap;html=1;" vertex="1" parent="1">
                    <mxGeometry x="678.5" y="1090" width="101.5" height="30" as="geometry"/>
                </mxCell>
                <mxCell id="258" value="&lt;span style=&quot;color: rgb(71, 71, 71); font-family: メイリオ, Meiryo, &amp;quot;ヒラギノ角ゴ Pro W3&amp;quot;, &amp;quot;Hiragino Kaku Gothic Pro&amp;quot;, Osaka, &amp;quot;ＭＳ Ｐゴシック&amp;quot;, &amp;quot;MS PGothic&amp;quot;, sans-serif; font-size: 14px; font-style: normal; font-variant-ligatures: normal; font-variant-caps: normal; font-weight: 400; letter-spacing: normal; orphans: 2; text-align: left; text-indent: 0px; text-transform: none; widows: 2; word-spacing: 0px; -webkit-text-stroke-width: 0px; white-space: normal; background-color: rgb(255, 255, 255); text-decoration-thickness: initial; text-decoration-style: initial; text-decoration-color: initial; float: none; display: inline !important;&quot;&gt;2&lt;/span&gt;&lt;span style=&quot;background-color: light-dark(rgb(255, 255, 255), rgb(18, 18, 18)); font-family: メイリオ, Meiryo, &amp;quot;ヒラギノ角ゴ Pro W3&amp;quot;, &amp;quot;Hiragino Kaku Gothic Pro&amp;quot;, Osaka, &amp;quot;ＭＳ Ｐゴシック&amp;quot;, &amp;quot;MS PGothic&amp;quot;, sans-serif; font-size: 14px;&quot;&gt;．どのような症状ですか？※複数選択可能&lt;/span&gt;" style="text;whiteSpace=wrap;html=1;" vertex="1" parent="1">
                    <mxGeometry x="678.5" y="1140" width="341.5" height="30" as="geometry"/>
                </mxCell>
                <mxCell id="259" value="&lt;font face=&quot;メイリオ, Meiryo, ヒラギノ角ゴ Pro W3, Hiragino Kaku Gothic Pro, Osaka, ＭＳ Ｐゴシック, MS PGothic, sans-serif&quot;&gt;&lt;span style=&quot;font-size: 14px; background-color: rgb(255, 255, 255);&quot;&gt;□ 発熱&lt;/span&gt;&lt;/font&gt;" style="text;whiteSpace=wrap;html=1;" vertex="1" parent="1">
                    <mxGeometry x="678.5" y="1180" width="61.5" height="30" as="geometry"/>
                </mxCell>
                <mxCell id="260" value="&lt;font face=&quot;メイリオ, Meiryo, ヒラギノ角ゴ Pro W3, Hiragino Kaku Gothic Pro, Osaka, ＭＳ Ｐゴシック, MS PGothic, sans-serif&quot;&gt;&lt;span style=&quot;font-size: 14px; background-color: rgb(255, 255, 255);&quot;&gt;□ 頭痛&lt;/span&gt;&lt;/font&gt;" style="text;whiteSpace=wrap;html=1;" vertex="1" parent="1">
                    <mxGeometry x="750" y="1180" width="60" height="30" as="geometry"/>
                </mxCell>
                <mxCell id="262" value="&lt;font face=&quot;メイリオ, Meiryo, ヒラギノ角ゴ Pro W3, Hiragino Kaku Gothic Pro, Osaka, ＭＳ Ｐゴシック, MS PGothic, sans-serif&quot;&gt;&lt;span style=&quot;font-size: 14px; background-color: rgb(255, 255, 255);&quot;&gt;□ 咳&lt;/span&gt;&lt;/font&gt;" style="text;whiteSpace=wrap;html=1;" vertex="1" parent="1">
                    <mxGeometry x="830" y="1180" width="60" height="30" as="geometry"/>
                </mxCell>
                <mxCell id="263" value="&lt;font face=&quot;メイリオ, Meiryo, ヒラギノ角ゴ Pro W3, Hiragino Kaku Gothic Pro, Osaka, ＭＳ Ｐゴシック, MS PGothic, sans-serif&quot;&gt;&lt;span style=&quot;font-size: 14px; background-color: rgb(255, 255, 255);&quot;&gt;□ 鼻水&lt;/span&gt;&lt;/font&gt;" style="text;whiteSpace=wrap;html=1;" vertex="1" parent="1">
                    <mxGeometry x="880" y="1180" width="60" height="30" as="geometry"/>
                </mxCell>
                <mxCell id="264" value="&lt;font face=&quot;メイリオ, Meiryo, ヒラギノ角ゴ Pro W3, Hiragino Kaku Gothic Pro, Osaka, ＭＳ Ｐゴシック, MS PGothic, sans-serif&quot;&gt;&lt;span style=&quot;font-size: 14px; background-color: rgb(255, 255, 255);&quot;&gt;□ 鼻づまり&lt;/span&gt;&lt;/font&gt;" style="text;whiteSpace=wrap;html=1;" vertex="1" parent="1">
                    <mxGeometry x="678.5" y="1220" width="81.5" height="30" as="geometry"/>
                </mxCell>
                <mxCell id="265" value="&lt;font face=&quot;メイリオ, Meiryo, ヒラギノ角ゴ Pro W3, Hiragino Kaku Gothic Pro, Osaka, ＭＳ Ｐゴシック, MS PGothic, sans-serif&quot;&gt;&lt;span style=&quot;font-size: 14px; background-color: rgb(255, 255, 255);&quot;&gt;□ 倦怠感&lt;/span&gt;&lt;/font&gt;" style="text;whiteSpace=wrap;html=1;" vertex="1" parent="1">
                    <mxGeometry x="770" y="1220" width="81.5" height="30" as="geometry"/>
                </mxCell>
                <mxCell id="266" value="&lt;font face=&quot;メイリオ, Meiryo, ヒラギノ角ゴ Pro W3, Hiragino Kaku Gothic Pro, Osaka, ＭＳ Ｐゴシック, MS PGothic, sans-serif&quot;&gt;&lt;span style=&quot;font-size: 14px; background-color: rgb(255, 255, 255);&quot;&gt;□ 下痢&lt;/span&gt;&lt;/font&gt;" style="text;whiteSpace=wrap;html=1;" vertex="1" parent="1">
                    <mxGeometry x="850" y="1220" width="81.5" height="30" as="geometry"/>
                </mxCell>
                <mxCell id="267" value="&lt;font face=&quot;メイリオ, Meiryo, ヒラギノ角ゴ Pro W3, Hiragino Kaku Gothic Pro, Osaka, ＭＳ Ｐゴシック, MS PGothic, sans-serif&quot;&gt;&lt;span style=&quot;font-size: 14px; background-color: rgb(255, 255, 255);&quot;&gt;□ 吐き気&lt;/span&gt;&lt;/font&gt;" style="text;whiteSpace=wrap;html=1;" vertex="1" parent="1">
                    <mxGeometry x="680" y="1260" width="81.5" height="30" as="geometry"/>
                </mxCell>
                <mxCell id="268" value="&lt;font face=&quot;メイリオ, Meiryo, ヒラギノ角ゴ Pro W3, Hiragino Kaku Gothic Pro, Osaka, ＭＳ Ｐゴシック, MS PGothic, sans-serif&quot;&gt;&lt;span style=&quot;font-size: 14px; background-color: rgb(255, 255, 255);&quot;&gt;□ めまい&lt;/span&gt;&lt;/font&gt;" style="text;whiteSpace=wrap;html=1;" vertex="1" parent="1">
                    <mxGeometry x="770" y="1260" width="81.5" height="30" as="geometry"/>
                </mxCell>
                <mxCell id="270" value="&lt;font face=&quot;メイリオ, Meiryo, ヒラギノ角ゴ Pro W3, Hiragino Kaku Gothic Pro, Osaka, ＭＳ Ｐゴシック, MS PGothic, sans-serif&quot;&gt;&lt;span style=&quot;font-size: 14px; background-color: rgb(255, 255, 255);&quot;&gt;□ 関節痛&lt;/span&gt;&lt;/font&gt;" style="text;whiteSpace=wrap;html=1;" vertex="1" parent="1">
                    <mxGeometry x="850" y="1260" width="81.5" height="30" as="geometry"/>
                </mxCell>
                <mxCell id="271" value="&lt;font face=&quot;メイリオ, Meiryo, ヒラギノ角ゴ Pro W3, Hiragino Kaku Gothic Pro, Osaka, ＭＳ Ｐゴシック, MS PGothic, sans-serif&quot;&gt;&lt;span style=&quot;font-size: 14px; background-color: rgb(255, 255, 255);&quot;&gt;□ その他&lt;/span&gt;&lt;/font&gt;" style="text;whiteSpace=wrap;html=1;" vertex="1" parent="1">
                    <mxGeometry x="680.5" y="1300" width="81.5" height="30" as="geometry"/>
                </mxCell>
                <mxCell id="272" value="&lt;span style=&quot;background-color: light-dark(rgb(255, 255, 255), rgb(18, 18, 18)); font-family: メイリオ, Meiryo, &amp;quot;ヒラギノ角ゴ Pro W3&amp;quot;, &amp;quot;Hiragino Kaku Gothic Pro&amp;quot;, Osaka, &amp;quot;ＭＳ Ｐゴシック&amp;quot;, &amp;quot;MS PGothic&amp;quot;, sans-serif; font-size: 14px;&quot;&gt;&lt;font color=&quot;#474747&quot;&gt;3&lt;/font&gt;．その他の症状の場合は、ご記入ください。&lt;/span&gt;" style="text;whiteSpace=wrap;html=1;" vertex="1" parent="1">
                    <mxGeometry x="678.5" y="1340" width="341.5" height="30" as="geometry"/>
                </mxCell>
                <mxCell id="273" value="" style="rounded=0;whiteSpace=wrap;html=1;fontSize=25;align=left;" vertex="1" parent="1">
                    <mxGeometry x="680.5" y="1370" width="499.5" height="90" as="geometry"/>
                </mxCell>
                <mxCell id="275" value="&lt;span style=&quot;background-color: light-dark(rgb(255, 255, 255), rgb(18, 18, 18)); font-family: メイリオ, Meiryo, &amp;quot;ヒラギノ角ゴ Pro W3&amp;quot;, &amp;quot;Hiragino Kaku Gothic Pro&amp;quot;, Osaka, &amp;quot;ＭＳ Ｐゴシック&amp;quot;, &amp;quot;MS PGothic&amp;quot;, sans-serif; font-size: 14px;&quot;&gt;&lt;font color=&quot;#474747&quot;&gt;4 - 1&lt;/font&gt;．既往歴・治療中の病気はありますか？&lt;/span&gt;" style="text;whiteSpace=wrap;html=1;" vertex="1" parent="1">
                    <mxGeometry x="678.5" y="1480" width="341.5" height="30" as="geometry"/>
                </mxCell>
                <mxCell id="276" value="&lt;font face=&quot;メイリオ, Meiryo, ヒラギノ角ゴ Pro W3, Hiragino Kaku Gothic Pro, Osaka, ＭＳ Ｐゴシック, MS PGothic, sans-serif&quot;&gt;&lt;span style=&quot;font-size: 14px; background-color: rgb(255, 255, 255);&quot;&gt;□ はい&lt;/span&gt;&lt;/font&gt;" style="text;whiteSpace=wrap;html=1;" vertex="1" parent="1">
                    <mxGeometry x="680" y="1510" width="81.5" height="30" as="geometry"/>
                </mxCell>
                <mxCell id="277" value="&lt;font face=&quot;メイリオ, Meiryo, ヒラギノ角ゴ Pro W3, Hiragino Kaku Gothic Pro, Osaka, ＭＳ Ｐゴシック, MS PGothic, sans-serif&quot;&gt;&lt;span style=&quot;font-size: 14px; background-color: rgb(255, 255, 255);&quot;&gt;□ いいえ&lt;/span&gt;&lt;/font&gt;" style="text;whiteSpace=wrap;html=1;" vertex="1" parent="1">
                    <mxGeometry x="740" y="1510" width="81.5" height="30" as="geometry"/>
                </mxCell>
                <mxCell id="278" value="&lt;span style=&quot;background-color: light-dark(rgb(255, 255, 255), rgb(18, 18, 18)); font-family: メイリオ, Meiryo, &amp;quot;ヒラギノ角ゴ Pro W3&amp;quot;, &amp;quot;Hiragino Kaku Gothic Pro&amp;quot;, Osaka, &amp;quot;ＭＳ Ｐゴシック&amp;quot;, &amp;quot;MS PGothic&amp;quot;, sans-serif; font-size: 14px;&quot;&gt;&lt;font color=&quot;#474747&quot;&gt;4 - 2&lt;/font&gt;．【はい】の方のみ、治療中の病気や服用中のお薬を記入してください。&lt;/span&gt;" style="text;whiteSpace=wrap;html=1;" vertex="1" parent="1">
                    <mxGeometry x="678.5" y="1540" width="501.5" height="30" as="geometry"/>
                </mxCell>
                <mxCell id="279" value="" style="rounded=0;whiteSpace=wrap;html=1;fontSize=25;align=left;" vertex="1" parent="1">
                    <mxGeometry x="680.5" y="1570" width="499.5" height="90" as="geometry"/>
                </mxCell>
                <mxCell id="280" value="&lt;font face=&quot;メイリオ, Meiryo, ヒラギノ角ゴ Pro W3, Hiragino Kaku Gothic Pro, Osaka, ＭＳ Ｐゴシック, MS PGothic, sans-serif&quot;&gt;&lt;span style=&quot;font-size: 14px; background-color: rgb(255, 255, 255);&quot;&gt;□ 味覚障害&lt;/span&gt;&lt;/font&gt;" style="text;whiteSpace=wrap;html=1;" vertex="1" parent="1">
                    <mxGeometry x="910" y="1220" width="81.5" height="30" as="geometry"/>
                </mxCell>
                <mxCell id="281" value="&lt;span style=&quot;background-color: light-dark(rgb(255, 255, 255), rgb(18, 18, 18)); font-family: メイリオ, Meiryo, &amp;quot;ヒラギノ角ゴ Pro W3&amp;quot;, &amp;quot;Hiragino Kaku Gothic Pro&amp;quot;, Osaka, &amp;quot;ＭＳ Ｐゴシック&amp;quot;, &amp;quot;MS PGothic&amp;quot;, sans-serif; font-size: 14px;&quot;&gt;&lt;font color=&quot;#474747&quot;&gt;5 - 1&lt;/font&gt;．お薬や食べ物のアレルギーはありますか？&lt;/span&gt;" style="text;whiteSpace=wrap;html=1;" vertex="1" parent="1">
                    <mxGeometry x="678.5" y="1680" width="341.5" height="30" as="geometry"/>
                </mxCell>
                <mxCell id="282" value="&lt;font face=&quot;メイリオ, Meiryo, ヒラギノ角ゴ Pro W3, Hiragino Kaku Gothic Pro, Osaka, ＭＳ Ｐゴシック, MS PGothic, sans-serif&quot;&gt;&lt;span style=&quot;font-size: 14px; background-color: rgb(255, 255, 255);&quot;&gt;□ はい&lt;/span&gt;&lt;/font&gt;" style="text;whiteSpace=wrap;html=1;" vertex="1" parent="1">
                    <mxGeometry x="680" y="1710" width="81.5" height="30" as="geometry"/>
                </mxCell>
                <mxCell id="283" value="&lt;span style=&quot;background-color: light-dark(rgb(255, 255, 255), rgb(18, 18, 18)); font-family: メイリオ, Meiryo, &amp;quot;ヒラギノ角ゴ Pro W3&amp;quot;, &amp;quot;Hiragino Kaku Gothic Pro&amp;quot;, Osaka, &amp;quot;ＭＳ Ｐゴシック&amp;quot;, &amp;quot;MS PGothic&amp;quot;, sans-serif; font-size: 14px;&quot;&gt;&lt;font color=&quot;#474747&quot;&gt;5 - 2&lt;/font&gt;．【はい】の方のみ、お薬名や食べ物を記入してください。&lt;/span&gt;" style="text;whiteSpace=wrap;html=1;" vertex="1" parent="1">
                    <mxGeometry x="678.5" y="1740" width="501.5" height="30" as="geometry"/>
                </mxCell>
                <mxCell id="284" value="" style="rounded=0;whiteSpace=wrap;html=1;fontSize=25;align=left;" vertex="1" parent="1">
                    <mxGeometry x="680.5" y="1770" width="499.5" height="90" as="geometry"/>
                </mxCell>
                <mxCell id="285" value="&lt;font face=&quot;メイリオ, Meiryo, ヒラギノ角ゴ Pro W3, Hiragino Kaku Gothic Pro, Osaka, ＭＳ Ｐゴシック, MS PGothic, sans-serif&quot;&gt;&lt;span style=&quot;font-size: 14px; background-color: rgb(255, 255, 255);&quot;&gt;□ いいえ&lt;/span&gt;&lt;/font&gt;" style="text;whiteSpace=wrap;html=1;" vertex="1" parent="1">
                    <mxGeometry x="740" y="1710" width="81.5" height="30" as="geometry"/>
                </mxCell>
                <mxCell id="286" value="&lt;span style=&quot;background-color: light-dark(rgb(255, 255, 255), rgb(18, 18, 18)); font-family: メイリオ, Meiryo, &amp;quot;ヒラギノ角ゴ Pro W3&amp;quot;, &amp;quot;Hiragino Kaku Gothic Pro&amp;quot;, Osaka, &amp;quot;ＭＳ Ｐゴシック&amp;quot;, &amp;quot;MS PGothic&amp;quot;, sans-serif; font-size: 14px;&quot;&gt;&lt;font color=&quot;#474747&quot;&gt;6&lt;/font&gt;．事前にお伝えしたい内容がございましたらご記入ください。&lt;/span&gt;" style="text;whiteSpace=wrap;html=1;" vertex="1" parent="1">
                    <mxGeometry x="678.5" y="1880" width="421.5" height="30" as="geometry"/>
                </mxCell>
                <mxCell id="287" value="" style="rounded=0;whiteSpace=wrap;html=1;fontSize=25;align=left;" vertex="1" parent="1">
                    <mxGeometry x="680.5" y="1910" width="499.5" height="90" as="geometry"/>
                </mxCell>
                <mxCell id="288" value="確認画面へ" style="rounded=0;whiteSpace=wrap;html=1;fontSize=25;align=center;" vertex="1" parent="1">
                    <mxGeometry x="830" y="2020" width="200" height="60" as="geometry"/>
                </mxCell>
                <mxCell id="291" value="戻る" style="rounded=0;whiteSpace=wrap;html=1;fontSize=25;align=center;" vertex="1" parent="1">
                    <mxGeometry x="830" y="2090" width="200" height="60" as="geometry"/>
                </mxCell>
            </root>
        </mxGraphModel>
    </diagram>
</mxfile>
